name C:/MyDriveSym/Projects/mobilecap/Data\Session20210823_0001\mocap\ForceDataProcessed\DJ1_forces.mot
datacolumns 28
datarows 8
range 1.79950000 1.80300000
endheader 
time	R_ground_force_vx	R_ground_force_vy	R_ground_force_vz	R_ground_force_px	R_ground_force_py	R_ground_force_pz	R_ground_torque_x	R_ground_torque_y	R_ground_torque_z	L_ground_force_vx	L_ground_force_vy	L_ground_force_vz	L_ground_force_px	L_ground_force_py	L_ground_force_pz	L_ground_torque_x	L_ground_torque_y	L_ground_torque_z	3_ground_force_vx	3_ground_force_vy	3_ground_force_vz	3_ground_force_px	3_ground_force_py	3_ground_force_pz	3_ground_torque_x	3_ground_torque_y	3_ground_torque_z	
          1.79950000	        -83.00190200	        532.97018200	        -99.58335200	         -0.10743900	          0.00600000	         -0.36817700	          0.00000000	         -1.39293200	          0.00000000	        -72.00946400	        537.19970400	         54.57194600	         -0.12816600	          0.00600000	         -0.83010700	          0.00000000	          4.46094900	          0.00000000	          0.00000000	          0.00000000	          0.00000000	          0.00000000	          0.00000000	          0.00000000	          0.00000000	          0.00000000	          0.00000000	
          1.80000000	        -83.08192700	        531.47322700	        -99.29959800	         -0.10737900	          0.00600000	         -0.36813500	          0.00000000	         -1.36110700	          0.00000000	        -72.49439000	        536.20851100	         54.28886300	         -0.12806900	          0.00600000	         -0.83012300	          0.00000000	          4.43734500	          0.00000000	          0.00000000	          0.00000000	          0.00000000	          0.00000000	          0.00000000	          0.00000000	          0.00000000	          0.00000000	          0.00000000	
          1.80050000	        -83.14827300	        529.94052500	        -99.00608700	         -0.10731900	          0.00600000	         -0.36809300	          0.00000000	         -1.32925600	          0.00000000	        -72.97393500	        535.19074100	         54.00275000	         -0.12797200	          0.00600000	         -0.83014000	          0.00000000	          4.41352200	          0.00000000	          0.00000000	          0.00000000	          0.00000000	          0.00000000	          0.00000000	          0.00000000	          0.00000000	          0.00000000	          0.00000000	
          1.80100000	        -83.20044100	        528.37142300	        -98.70256300	         -0.10725800	          0.00600000	         -0.36805000	          0.00000000	         -1.29740700	          0.00000000	        -73.44779900	        534.14590000	         53.71359200	         -0.12787400	          0.00600000	         -0.83015800	          0.00000000	          4.38947800	          0.00000000	          0.00000000	          0.00000000	          0.00000000	          0.00000000	          0.00000000	          0.00000000	          0.00000000	          0.00000000	          0.00000000	
          1.80150000	        -83.23790800	        526.76526900	        -98.38877000	         -0.10719700	          0.00600000	         -0.36800600	          0.00000000	         -1.26558500	          0.00000000	        -73.91567100	        533.07348600	         53.42137500	         -0.12777500	          0.00600000	         -0.83017600	          0.00000000	          4.36520900	          0.00000000	          0.00000000	          0.00000000	          0.00000000	          0.00000000	          0.00000000	          0.00000000	          0.00000000	          0.00000000	          0.00000000	
          1.80200000	        -83.26013000	        525.12139300	        -98.06445100	         -0.10713500	          0.00600000	         -0.36796200	          0.00000000	         -1.23381000	          0.00000000	        -74.37723400	        531.97299000	         53.12609800	         -0.12767600	          0.00600000	         -0.83019500	          0.00000000	          4.34070800	          0.00000000	          0.00000000	          0.00000000	          0.00000000	          0.00000000	          0.00000000	          0.00000000	          0.00000000	          0.00000000	          0.00000000	
          1.80250000	        -83.26655200	        523.43908200	        -97.72933600	         -0.10707300	          0.00600000	         -0.36791700	          0.00000000	         -1.20210200	          0.00000000	        -74.83217400	        530.84389700	         52.82777600	         -0.12757700	          0.00600000	         -0.83021500	          0.00000000	          4.31597300	          0.00000000	          0.00000000	          0.00000000	          0.00000000	          0.00000000	          0.00000000	          0.00000000	          0.00000000	          0.00000000	          0.00000000	
          1.80300000	        -83.25659100	        521.71754400	        -97.38314100	         -0.10701000	          0.00600000	         -0.36787100	          0.00000000	         -1.17048400	          0.00000000	        -75.28018100	        529.68568800	         52.52644600	         -0.12747700	          0.00600000	         -0.83023500	          0.00000000	          4.29100500	          0.00000000	          0.00000000	          0.00000000	          0.00000000	          0.00000000	          0.00000000	          0.00000000	          0.00000000	          0.00000000	          0.00000000	
